<?xml version="1.0" encoding="utf-8"?>
<!-- Generator: Adobe Illustrator 27.0.0, SVG Export Plug-In . SVG Version: 6.00 Build 0)  -->
<svg version="1.1" id="Layer_1" xmlns="http://www.w3.org/2000/svg" xmlns:xlink="http://www.w3.org/1999/xlink" x="0px" y="0px"
	 viewBox="0 0 1920 1080" style="enable-background:new 0 0 1920 1080;" xml:space="preserve">
<style type="text/css">
	.st0{fill:#F8A291;}
	.st1{fill:#211E1C;}
	.st2{fill:#F8A392;}
</style>
<g>
	<g>
		<path class="st0" d="M1202,541.85c-3.66,0-7.35-0.26-10.99,0.05c-9.62,0.82-16.64-1.15-23.14-10.07
			c-11.49-15.79-29.1-18.84-47.38-14.56c-21.66,5.07-33.82,20.14-36.76,41.36c-2.45,17.69-2.22,35.52,8.98,51.35
			c18.85,26.66,58.86,27.51,77.81,0.98c3.95-5.53,7.99-7.53,14.46-7.34c12.08,0.36,24.19,0.29,36.28,0.04
			c6.93-0.14,8.27,2.5,5.96,8.64c-13.06,34.74-38.02,55.02-74.83,60.98c-35.84,5.81-68.36-1.67-93.53-28.24
			c-29.9-31.57-34.43-69.91-21.11-109.68c12.41-37.04,39.99-57.7,79.11-63.32c49.86-7.17,92.26,15.62,109.37,58.67
			c3.5,8.82,2.01,12.1-7.77,11.22C1213.03,541.45,1207.5,541.85,1202,541.85z"/>
		<path class="st0" d="M1477.67,532.71c31.08-24.65,60.85-27.43,86.64-8.63c19.3,14.06,24.12,34.95,24.69,56.88
			c0.72,27.99,0.07,56,0.28,84.01c0.04,5.89-1.5,8.62-8,8.38c-11.35-0.4-22.74-0.48-34.09,0.02c-7.22,0.32-8.44-2.93-8.38-9.1
			c0.24-26.18,0.37-52.37,0.01-78.55c-0.33-24.03-20.13-38.19-41.68-30.2c-11.11,4.12-16.52,12.64-17.9,24.01
			c-3.29,27.18-1.26,54.47-1.31,81.69c-0.02,9.39-2.12,13.15-12.13,12.21c-9.45-0.89-19.07-0.56-28.57-0.07
			c-6.93,0.36-8.67-2.39-8.64-8.86c0.21-47.28,0.27-94.56-0.04-141.84c-0.05-7.6,2.97-9.23,9.74-8.91
			c9.14,0.44,18.39,0.8,27.47-0.08c9.94-0.96,13.49,2.69,11.95,12.16C1477.43,527.58,1477.67,529.39,1477.67,532.71z"/>
		<path class="st1" d="M498.76,535.92c18.51-21.45,40.08-25.71,63.78-21.75c24.07,4.02,42.61,24.21,45.36,51.19
			c3.47,34.07,0.7,68.36,1.43,102.55c0.1,4.58-2.09,5.43-6.03,5.38c-12.1-0.14-24.22-0.36-36.31,0.07
			c-6.53,0.23-5.77-3.62-5.76-7.66c0.03-26.57,0.27-53.14-0.07-79.7c-0.3-23.54-17.19-37.28-39-32.35
			c-13.31,3.01-22.25,13.07-22.72,28.52c-0.83,26.9-0.94,53.85-0.42,80.76c0.17,8.89-2.68,11.04-10.98,10.46
			c-9.86-0.68-19.81-0.42-29.7-0.06c-5.47,0.2-7.6-1.08-7.57-7.09c0.24-48.04,0.23-96.08,0.01-144.12c-0.03-6.12,1.63-8.36,8-8.03
			c9.51,0.49,19.12,0.75,28.59-0.05c9.01-0.76,12.98,1.92,11.46,11.18C498.42,527.65,498.76,530.18,498.76,535.92z"/>
		<path class="st0" d="M1826.67,572.63c-5.5,0-11.01-0.22-16.49,0.06c-5.17,0.27-8.88-0.69-11.45-6
			c-4.63-9.56-13.6-13.36-23.57-12.96c-11.08,0.44-19.61,6.53-23.58,16.85c-6.08,15.83-6.41,32.14,0.75,47.72
			c8.79,19.13,33.68,21.3,45.39,3.9c3.78-5.62,7.61-7.91,14.2-7.67c10.98,0.4,22,0.48,32.98-0.01c8.87-0.39,9.73,2.92,7.13,10.4
			c-10.09,29.08-31.09,45.94-60.94,49.83c-31.76,4.14-60.91-2.77-80.42-31.03c-26.09-37.8-17.75-93.14,18.29-118.18
			c36.85-25.6,105.26-18.68,123,36.41c2.64,8.21,1.5,11.54-7.72,10.76C1838.44,572.22,1832.54,572.62,1826.67,572.63z"/>
		<path class="st1" d="M676.78,475.76c23.79,0,23.79,0,23.79,23.55c0,14.93,0,14.93,15.01,14.93c2.93,0,5.89,0.27,8.79-0.06
			c5.93-0.67,9.16,1.09,8.22,7.63c-0.26,1.78,0,3.63-0.04,5.45c-0.19,8.68,2.66,19.4-1.46,25.47c-4.14,6.1-15.61,1.76-23.84,2.01
			c-5.34,0.16-6.83,1.9-6.76,7.01c0.25,18.89,0.19,37.79,0.06,56.69c-0.07,9.85,5.04,13.33,14.44,13.4
			c17.94,0.13,17.94,0.36,17.94,17.32c0,24.29,0,24.29-24.41,24.08c-38.35-0.33-56.29-18.32-56.35-56.55
			c-0.03-17.81-0.32-35.62,0.16-53.41c0.18-6.72-1.74-9.68-8.51-8.34c-10.34,2.05-12.73-2.93-11.56-11.96
			c0.56-4.29,0.46-8.75,0.02-13.06c-1.08-10.67,0.05-18.86,14.35-15.75c4.23,0.92,5.7-1.49,5.59-5.63
			c-0.22-7.99,0.46-16.03-0.21-23.97c-0.64-7.56,2.47-9.54,9.4-8.9C666.49,476.14,671.65,475.76,676.78,475.76z"/>
		<path class="st0" d="M1308.17,567.26c0,31.26-0.48,62.54,0.27,93.79c0.25,10.5-3.35,13.12-13.05,12.35
			c-9.47-0.74-19.05-0.4-28.57-0.08c-5.67,0.19-7.71-1.82-7.69-7.53c0.14-65.44,0.15-130.88-0.02-196.31
			c-0.02-6.35,2.44-8.18,8.44-7.99c10.25,0.33,20.54,0.51,30.77-0.05c7.67-0.42,10.1,2.19,10.01,9.84
			C1307.95,503.28,1308.17,535.27,1308.17,567.26z"/>
		<path class="st1" d="M1003.98,568.92c0,32-0.21,64,0.17,96c0.08,6.8-1.8,8.82-8.57,8.47c-10.6-0.55-21.26-0.33-31.88-0.07
			c-5.16,0.13-7.9-0.58-7.88-6.9c0.22-65.45,0.2-130.91,0.03-196.37c-0.01-5.66,1.67-7.7,7.46-7.5c10.62,0.36,21.29,0.6,31.88-0.07
			c7.65-0.48,9,2.57,8.94,9.34C1003.81,504.19,1003.98,536.56,1003.98,568.92z"/>
		<path class="st2" d="M1343.28,592.41c0-22.88,0.25-45.77-0.15-68.65c-0.13-7.34,1.66-10.53,9.7-10.05
			c10.58,0.63,21.24,0.45,31.84,0.05c6.47-0.25,9.01,1.58,8.97,8.49c-0.26,47.58-0.21,95.17-0.04,142.75
			c0.02,5.89-1.48,8.59-7.96,8.35c-11.34-0.41-22.71-0.49-34.04,0.02c-7.18,0.32-8.49-2.82-8.42-9.05
			C1343.44,640.36,1343.28,616.38,1343.28,592.41z"/>
		<path class="st2" d="M1671.07,593.48c0,22.88-0.46,45.78,0.22,68.64c0.28,9.38-2.9,11.93-11.82,11.28
			c-9.83-0.72-19.77-0.44-29.64-0.07c-6.28,0.24-9.21-1.24-9.17-8.32c0.26-47.58,0.25-95.16,0-142.74c-0.04-6.87,2.51-8.76,9-8.52
			c10.97,0.4,21.98,0.47,32.94-0.02c6.99-0.31,8.66,2.52,8.58,8.91C1670.9,546.26,1671.07,569.87,1671.07,593.48z"/>
		<path class="st2" d="M1338.79,470.79c0.27-14.92,14.09-27.07,30.25-26.58c16.78,0.5,29.36,12.51,29.04,27.73
			c-0.31,14.79-13.16,26.47-29.06,26.42C1351.48,498.31,1338.51,486.48,1338.79,470.79z"/>
		<path class="st2" d="M1675.6,472.06c-0.24,14.67-13.12,26.34-29.02,26.31c-17.04-0.03-30.78-12.6-30.28-27.69
			c0.47-14.14,14.14-26.39,29.54-26.48C1662.91,444.08,1675.86,456.22,1675.6,472.06z"/>
		<path class="st1" d="M177.42,478.69c-20.79-6.34-42.04-4.74-61-5.11c-15.05,0-27.91,0.47-40.71-0.17
			c-8.38-0.42-11.34,1.71-11.16,10.66c0.6,29.45,0.23,58.92,0.23,88.38c0,30.92,0.04,61.83-0.04,92.75
			c-0.01,4.7-0.24,8.42,6.59,8.15c30-1.2,60.09,1.88,90.05-2.08c45.93-6.08,79.31-40.75,83.16-86.64
			C248.88,532.75,223.29,492.68,177.42,478.69z M195.73,579.82c-2.02,31.16-23.04,50.68-55.51,51.56
			c-27.41,0.74-27.41,0.74-27.41-26.68c0-10.9,0-21.81,0-32.71c0-16.72,0.15-33.44-0.09-50.15c-0.08-5.26,0.88-8.17,7.12-7.75
			c9.11,0.62,18.26-0.21,27.4,1.19C181.34,520.52,198.14,542.72,195.73,579.82z"/>
		<path class="st1" d="M919.66,539.91c0-25.67,0-25.67-26.25-25.67c-20.65,0-20.65,0-23.12,20.75
			c-32.28-38.1-93.49-26.54-111.83,20.41c-10.57,27.05-10.34,54.22,1.99,80.61c14.35,30.72,45.85,45.31,78.32,37.17
			c12.65-3.17,22.48-10.92,32.59-22.11c0,5.72,0.45,8.95-0.08,12c-1.59,9.06,2.74,10.87,10.85,10.33
			c9.49-0.64,19.09-0.66,28.58,0.01c7.4,0.52,9.18-2.02,9.12-9.09C919.5,622.85,919.66,581.38,919.66,539.91z M871.34,595.01
			c-0.59,22.72-15.95,39.09-36.17,38.55c-20.63-0.55-35.45-18.07-34.8-41.12c0.65-22.99,15.69-38.91,36.2-38.32
			C857.58,554.71,871.94,571.61,871.34,595.01z"/>
		<path class="st1" d="M312.77,517.61c-36.2,12.8-54.94,49.79-47.89,92.63c6.31,38.31,35.83,63.92,75.14,65.18
			c35.75,1.15,66.53-17.54,77.3-46.57c2.15-5.79,2.31-8.55-5.3-8.24c-12.07,0.49-24.18,0.31-36.27,0.04
			c-4.82-0.11-7.87,1.29-10.82,5.37c-7.32,10.13-18.31,11.68-29.58,9.37c-11.7-2.39-19.11-10.07-22.36-21.63
			c-1.56-5.56-1.27-8.62,6.14-8.38c15.74,0.52,31.51,0.16,47.27,0.16c15.76,0,31.53-0.43,47.27,0.18c7.81,0.31,9.67-2.34,9.98-9.72
			C426.55,526.3,364.79,499.22,312.77,517.61z M366.53,579.1c-7.99-0.5-16.04-0.11-24.07-0.11s-16.06-0.19-24.07,0.07
			c-4.87,0.16-6.48-1.25-5.34-6.25c2.71-11.82,14.58-21.24,28.11-21.84c16-0.7,28.33,6.76,32.04,19.06
			C375.08,576.28,374.26,579.59,366.53,579.1z"/>
	</g>
</g>
</svg>
